# xmcd
#
# Track frame offsets:
#	150
#	25067
#	45066
#	67683
#	89197
#	111811
#	135743
#	160667
#	179590
#	200396
#	222587
#	241077
#	260511
#	282366
#	301881
#
# Disc length: 4318 seconds
#
# Revision: 0
# Processed by: cddbd v1.5.2PL0 Copyright (c) Steve Scherf et al.
# Submitted via: EZCDAudioConverter 2.8.0.1
#
DISCID=cd10dc0f
DTITLE=张宇 - 宇众不同 b
DYEAR=2002
DGENRE=
TTITLE0=包围
TTITLE1=笑得痛苦
TTITLE2=言重
TTITLE3=女孩心不爱
TTITLE4=爱你的心
TTITLE5=昨天
TTITLE6=面临心锁
TTITLE7=圆个梦想
TTITLE8=不要一个人跳舞
TTITLE9=远离繁华世界
TTITLE10=千万悲愁
TTITLE11=囚鸟
TTITLE12=替身
TTITLE13=月亮惹得祸
TTITLE14=雨一直下
EXTD=
EXTT0=
EXTT1=
EXTT2=
EXTT3=
EXTT4=
EXTT5=
EXTT6=
EXTT7=
EXTT8=
EXTT9=
EXTT10=
EXTT11=
EXTT12=
EXTT13=
EXTT14=
PLAYORDER=
